<svg width="47" height="47" viewBox="0 0 47 47" fill="none" xmlns="http://www.w3.org/2000/svg">
<circle cx="23.4541" cy="23.4541" r="23.4541" fill="#1935CA"/>
<path fill-rule="evenodd" clip-rule="evenodd" d="M23.0498 10.8301V11.0384V12.4967H23.6748V15.8406C21.9391 15.9489 20.5498 17.3902 20.5498 19.1478V20.8299H19.7165C19.5414 20.8299 19.3791 20.8847 19.2445 20.978L16.1643 19.2666C16.1701 19.2326 16.1749 19.1988 16.1749 19.1633C16.1749 18.8938 15.9995 18.6634 15.7582 18.5766V16.2467H16.3832V14.58H14.7166V14.7884V16.2467H15.3416V18.5766C15.1003 18.6634 14.9249 18.8938 14.9249 19.1633C14.9249 19.506 15.2072 19.7883 15.5499 19.7883C15.7069 19.7883 15.8497 19.7268 15.9601 19.6296L18.9695 21.3019C18.916 21.4117 18.8832 21.5336 18.8832 21.6633V24.7882H13.0499V24.1632H11.3833V24.3716V25.8299H13.0499V25.2049H18.8832V25.8299V26.6567L15.9609 28.281C15.8504 28.1833 15.7075 28.1215 15.5499 28.1215C15.2072 28.1215 14.9249 28.4038 14.9249 28.7465C14.9249 29.016 15.1003 29.2456 15.3416 29.3324V31.6631H14.7166V31.8715V33.3298H16.3832V31.6631H15.7582V29.3324C15.9995 29.2456 16.1749 29.016 16.1749 28.7465C16.1749 28.7114 16.17 28.6775 16.1643 28.644L18.8832 27.1336V28.7465V29.1632C18.8832 29.6212 19.2585 29.9965 19.7165 29.9965H23.6748V34.1631H23.0498V34.3714V35.8297H24.7164V34.1631H24.0915V29.9965H28.0497C28.5078 29.9965 28.8831 29.6212 28.8831 29.1632V27.1336L31.6019 28.644C31.5963 28.6775 31.5914 28.7114 31.5914 28.7465C31.5914 29.016 31.7668 29.2456 32.008 29.3324V31.6631H31.383V31.8715V33.3298H33.0497V31.6631H32.4247V29.3324C32.6659 29.2456 32.8413 29.016 32.8413 28.7465C32.8413 28.4038 32.5591 28.1215 32.2163 28.1215C32.0592 28.1215 31.9165 28.1829 31.8062 28.2802L28.8831 26.6575V25.2049H34.7163V25.8299H36.383V24.1632H34.7163V24.3716V24.7882H28.8831V21.6633C28.8831 21.5336 28.8503 21.4117 28.7968 21.3019L31.807 19.6296C31.9173 19.7265 32.0596 19.7883 32.2163 19.7883C32.5591 19.7883 32.8413 19.506 32.8413 19.1633C32.8413 18.8938 32.6659 18.6634 32.4247 18.5766V16.2467H33.0497V14.58H31.383V14.7884V16.2467H32.008V18.5766C31.7668 18.6634 31.5914 18.8938 31.5914 19.1633C31.5914 19.1988 31.5961 19.2326 31.6019 19.2666L28.5217 20.978C28.3872 20.8847 28.2248 20.8299 28.0497 20.8299H22.214V19.1511C22.214 18.2221 22.9395 17.4967 23.8823 17.4967C24.8222 17.4967 25.5454 18.218 25.5498 19.143V19.1633C25.5498 19.6214 25.925 19.9966 26.3831 19.9966C26.8411 19.9966 27.2164 19.6214 27.2164 19.1633V19.1014C27.2167 19.0853 27.215 19.0692 27.2115 19.0534C27.1625 17.3391 25.7957 15.947 24.0915 15.8406V12.4967H24.7164V10.8301H23.0498ZM23.4665 11.2467H24.2998V12.0801H23.4665V11.2467ZM15.1332 14.9967H15.9666V15.83H15.1332V14.9967ZM31.7997 14.9967H32.633V15.83H31.7997V14.9967ZM23.8831 16.2467C25.4898 16.2467 26.7998 17.5479 26.7998 19.1478V19.1633C26.7998 19.3978 26.6175 19.58 26.3831 19.58C26.1487 19.58 25.9664 19.3978 25.9664 19.1633V19.1511H25.9672C25.9672 19.1456 25.9665 19.1403 25.9664 19.1348V19.1014C25.9666 19.0867 25.9653 19.072 25.9624 19.0575C25.9135 17.9522 25.0106 17.08 23.8823 17.08C22.7221 17.08 21.7974 18.0015 21.7974 19.1511V20.8299H20.9665V19.1478C20.9665 17.5479 22.2765 16.2467 23.8831 16.2467ZM15.5499 18.955C15.6674 18.955 15.7582 19.0458 15.7582 19.1633C15.7582 19.2808 15.6674 19.3716 15.5499 19.3716C15.4324 19.3716 15.3416 19.2808 15.3416 19.1633C15.3416 19.0458 15.4324 18.955 15.5499 18.955ZM32.2163 18.955C32.3339 18.955 32.4247 19.0458 32.4247 19.1633C32.4247 19.2808 32.3339 19.3716 32.2163 19.3716C32.0988 19.3716 32.008 19.2808 32.008 19.1633C32.008 19.0458 32.0988 18.955 32.2163 18.955ZM19.7165 21.2466H28.0497C28.2842 21.2466 28.4664 21.4288 28.4664 21.6633V25.8299H19.2999V21.6633C19.2999 21.4288 19.4821 21.2466 19.7165 21.2466ZM23.8831 22.0799C23.3103 22.0799 22.8415 22.5487 22.8415 23.1216C22.8417 23.4423 23.0106 23.7227 23.2581 23.9183V25.4124H24.5081V23.9175C24.7554 23.7221 24.9242 23.4419 24.9248 23.1216C24.9248 22.5487 24.4559 22.0799 23.8831 22.0799ZM23.8831 22.4966C24.2308 22.4966 24.5081 22.774 24.5081 23.1216C24.5077 23.3448 24.3889 23.5503 24.1956 23.6619L24.0915 23.7222V24.9965H23.6748V23.723L23.5706 23.6627C23.3771 23.551 23.2583 23.345 23.2581 23.1216C23.2581 22.774 23.5355 22.4966 23.8831 22.4966ZM11.8 24.5799H12.6333V24.7882V25.2049V25.4132H11.8V24.5799ZM35.133 24.5799H35.9663V25.4132H35.133V24.5799ZM19.2999 26.2465H28.4664V28.3298H19.2999V26.2465ZM19.9248 26.6632V26.8715V27.9132H21.1748V26.6632H19.9248ZM21.5915 26.6632V26.8715V27.9132H22.8415V26.6632H21.5915ZM23.2581 26.6632V26.8715V27.9132H24.5081V26.6632H23.2581ZM24.9248 26.6632V26.8715V27.9132H26.1748V26.6632H24.9248ZM26.5914 26.6632V26.8715V27.9132H27.8414V26.6632H26.5914ZM20.3415 27.0799H20.7582V27.4965H20.3415V27.0799ZM22.0082 27.0799H22.4248V27.4965H22.0082V27.0799ZM23.6748 27.0799H24.0915V27.4965H23.6748V27.0799ZM25.3414 27.0799H25.7581V27.4965H25.3414V27.0799ZM27.0081 27.0799H27.4247V27.4965H27.0081V27.0799ZM15.5499 28.5382C15.6674 28.5382 15.7582 28.629 15.7582 28.7465C15.7582 28.864 15.6674 28.9548 15.5499 28.9548C15.4324 28.9548 15.3416 28.864 15.3416 28.7465C15.3416 28.629 15.4324 28.5382 15.5499 28.5382ZM32.2163 28.5382C32.3339 28.5382 32.4247 28.629 32.4247 28.7465C32.4247 28.864 32.3339 28.9548 32.2163 28.9548C32.0988 28.9548 32.008 28.864 32.008 28.7465C32.008 28.629 32.0988 28.5382 32.2163 28.5382ZM19.2999 28.7465H28.4664V29.1632C28.4664 29.3976 28.2842 29.5798 28.0497 29.5798H19.7165C19.4821 29.5798 19.2999 29.3976 19.2999 29.1632V28.7465ZM15.1332 32.0798H15.9666V32.9131H15.1332V32.0798ZM31.7997 32.0798H32.633V32.9131H31.7997V32.0798ZM23.4665 34.5797H24.2998V35.4131H23.4665V34.5797Z" fill="white"/>
</svg>
